# Blender v2.66 (sub 1) OBJ File: 'capsule.blend'
# www.blender.org
v -0.449997 1.443107 0.000000
v -0.201634 0.045461 0.000000
v -0.002462 0.000000 0.000000
v -0.126644 1.754547 -0.155719
v -0.226230 1.627172 -0.280595
v -0.281496 1.443110 -0.349897
v -0.281496 0.356898 -0.349897
v -0.226230 0.172836 -0.280595
v -0.126644 0.045461 -0.155719
v 0.041858 1.754547 -0.194178
v 0.077399 1.627172 -0.349897
v 0.097124 1.443110 -0.436314
v 0.097124 0.356898 -0.436314
v 0.077399 0.172836 -0.349897
v 0.041858 0.045461 -0.194178
v -0.002462 1.800000 0.000000
v 0.176985 1.754547 -0.086417
v 0.320891 1.627172 -0.155719
v 0.400752 1.443110 -0.194178
v 0.400752 0.356898 -0.194178
v 0.320891 0.172836 -0.155719
v 0.176985 0.045461 -0.086417
v 0.176985 1.754547 0.086417
v 0.320891 1.627172 0.155719
v 0.400752 1.443110 0.194178
v 0.400752 0.356898 0.194178
v 0.320891 0.172836 0.155719
v 0.176985 0.045461 0.086417
v 0.041858 1.754547 0.194178
v 0.077399 1.627172 0.349897
v 0.097124 1.443110 0.436314
v 0.097124 0.356898 0.436314
v 0.077399 0.172836 0.349897
v 0.041858 0.045461 0.194178
v -0.126644 1.754547 0.155719
v -0.226230 1.627172 0.280595
v -0.281496 1.443110 0.349897
v -0.281496 0.356898 0.349897
v -0.226230 0.172836 0.280595
v -0.126644 0.045461 0.155719
v -0.201634 1.754547 -0.000000
v -0.361357 1.627172 -0.000000
v -0.449997 0.356898 -0.000000
v -0.361357 0.172836 -0.000000
v -0.449997 1.443107 0.000000
vt 0.873244 0.695239
vt 0.822000 0.623504
vt 0.866658 0.525469
vt 0.955693 0.531208
vt 0.310438 0.521985
vt 0.376328 0.522098
vt 0.332891 0.621121
vt 0.291898 0.569536
vt 0.781812 0.571631
vt 0.801033 0.524396
vt 0.466090 0.526511
vt 0.385407 0.694051
vt 0.853477 0.003399
vt 0.853477 0.263276
vt 0.712087 0.263276
vt 0.712086 0.003399
vt 0.776137 0.479897
vt 0.818070 0.429108
vt 0.204113 0.735430
vt 0.228389 0.648900
vt 0.570696 0.263277
vt 0.570696 0.003399
vt 0.878651 0.362668
vt 0.243161 0.584687
vt 0.429305 0.263277
vt 0.429305 0.003399
vt 0.712036 0.407045
vt 0.697490 0.317591
vt 0.141515 0.584517
vt 0.200928 0.556031
vt 0.725799 0.471681
vt 0.058727 0.619488
vt 0.137686 0.476455
vt 0.197002 0.505145
vt 0.688216 0.505984
vt 0.628984 0.476769
vt 0.058727 0.433533
vt 0.287914 0.263277
vt 0.287914 0.003399
vt 0.548389 0.432780
vt 0.146523 0.263277
vt 0.146523 0.003400
vt 0.633748 0.582734
vt 0.548389 0.624725
vt 0.219786 0.406085
vt 0.234337 0.470348
vt 0.691468 0.556410
vt 0.204113 0.317591
vt 0.732822 0.586203
vt 0.716047 0.651698
vt 0.385407 0.358970
vt 0.325991 0.426398
vt 0.251798 0.526511
vt 0.284821 0.477842
vt 0.697610 0.735259
vt 0.742469 0.528028
vt 0.994868 0.003399
vt 0.994868 0.263275
vt 0.005132 0.263276
vt 0.005132 0.003400
vn -0.204134 0.398032 -0.894371
vn -0.147484 -0.748806 -0.646172
vn -0.147484 0.748806 -0.646172
vn -0.204134 -0.398032 -0.894371
vn -0.222521 0.000000 -0.974928
vn 0.413243 0.748806 -0.518190
vn 0.571972 -0.398032 -0.717230
vn 0.623490 0.000000 -0.781832
vn 0.571971 0.398033 -0.717230
vn 0.413242 -0.748806 -0.518190
vn 1.000000 0.000000 0.000000
vn 0.917371 0.398033 0.000000
vn 0.662789 -0.748806 0.000000
vn 0.662790 0.748806 0.000000
vn 0.917371 -0.398032 0.000000
vn 0.413242 -0.748806 0.518189
vn 0.413243 0.748806 0.518190
vn 0.571972 -0.398033 0.717230
vn 0.623490 0.000000 0.781831
vn 0.571972 0.398032 0.717230
vn -0.222521 0.000000 0.974928
vn -0.204134 0.398032 0.894371
vn -0.147484 -0.748806 0.646172
vn -0.147485 0.748806 0.646172
vn -0.204134 -0.398032 0.894371
vn -0.597153 0.748806 0.287574
vn -0.826523 -0.398032 0.398032
vn -0.221261 -0.969376 -0.106554
vn -0.826525 0.398029 -0.398032
vn -0.597152 -0.748806 -0.287573
vn -0.597153 0.748806 -0.287574
vn -0.826523 -0.398032 -0.398033
vn -0.221223 0.969387 -0.106535
vn -0.900969 0.000000 -0.433884
vn -0.054637 0.969387 -0.239382
vn -0.054647 -0.969376 -0.239424
vn 0.153091 0.969387 -0.191970
vn 0.153117 -0.969376 -0.192003
vn 0.245581 -0.969376 0.000000
vn 0.245539 0.969387 0.000000
vn 0.153091 0.969387 0.191970
vn 0.153117 -0.969376 0.192003
vn -0.054637 0.969387 0.239382
vn -0.054647 -0.969376 0.239424
vn -0.826525 0.398029 0.398031
vn -0.597152 -0.748806 0.287573
vn -0.221223 0.969387 0.106535
vn -0.900969 0.000000 0.433884
vn -0.221261 -0.969376 0.106554
s off
f 6/1/1 5/2/1 11/3/1 12/4/1
f 9/5/2 8/6/2 14/7/2 15/8/2
f 5/2/3 4/9/3 10/10/3 11/3/3
f 8/6/4 7/11/4 13/12/4 14/7/4
f 7/13/5 6/14/5 12/15/5 13/16/5
f 11/3/6 10/10/6 17/17/6 18/18/6
f 14/7/7 13/12/7 20/19/7 21/20/7
f 13/16/8 12/15/8 19/21/8 20/22/8
f 12/4/9 11/3/9 18/18/9 19/23/9
f 15/8/10 14/7/10 21/20/10 22/24/10
f 20/22/11 19/21/11 25/25/11 26/26/11
f 19/23/12 18/18/12 24/27/12 25/28/12
f 22/24/13 21/20/13 27/29/13 28/30/13
f 18/18/14 17/17/14 23/31/14 24/27/14
f 21/20/15 20/19/15 26/32/15 27/29/15
f 28/30/16 27/29/16 33/33/16 34/34/16
f 24/27/17 23/31/17 29/35/17 30/36/17
f 27/29/18 26/32/18 32/37/18 33/33/18
f 26/26/19 25/25/19 31/38/19 32/39/19
f 25/28/20 24/27/20 30/36/20 31/40/20
f 32/39/21 31/38/21 37/41/21 38/42/21
f 31/40/22 30/36/22 36/43/22 37/44/22
f 34/34/23 33/33/23 39/45/23 40/46/23
f 30/36/24 29/35/24 35/47/24 36/43/24
f 33/33/25 32/37/25 38/48/25 39/45/25
f 36/43/26 35/47/26 41/49/26 42/50/26
f 39/45/27 38/48/27 43/51/27 44/52/27
f 3/53/28 2/54/28 9/5/28
f 1/55/29 42/50/29 5/2/29 6/1/29
f 2/54/30 44/52/30 8/6/30 9/5/30
f 42/50/31 41/49/31 4/9/31 5/2/31
f 44/52/32 43/51/32 7/11/32 8/6/32
f 41/49/33 16/56/33 4/9/33
f 43/57/34 1/58/34 6/14/34 7/13/34
f 4/9/35 16/56/35 10/10/35
f 3/53/36 9/5/36 15/8/36
f 10/10/37 16/56/37 17/17/37
f 3/53/38 15/8/38 22/24/38
f 3/53/39 22/24/39 28/30/39
f 17/17/40 16/56/40 23/31/40
f 23/31/41 16/56/41 29/35/41
f 3/53/42 28/30/42 34/34/42
f 29/35/43 16/56/43 35/47/43
f 3/53/44 34/34/44 40/46/44
f 37/44/45 36/43/45 42/50/45 45/55/45
f 40/46/46 39/45/46 44/52/46 2/54/46
f 35/47/47 16/56/47 41/49/47
f 38/42/48 37/41/48 45/59/48 43/60/48
f 3/53/49 40/46/49 2/54/49
